<?xml version="1.0" encoding="utf-8"?>
<!-- Generator: Adobe Illustrator 21.0.0, SVG Export Plug-In . SVG Version: 6.00 Build 0)  -->
<svg version="1.1" id="Layer_1" xmlns="http://www.w3.org/2000/svg" xmlns:xlink="http://www.w3.org/1999/xlink" x="0px" y="0px"
	 width="75px" height="75px" viewBox="0 0 75 75" style="enable-background:new 0 0 75 75;" xml:space="preserve">
<style type="text/css">
	.st0{fill:url(#SVGID_1_);}
	.st1{fill:url(#SVGID_2_);}
</style>
<g>
	<linearGradient id="SVGID_1_" gradientUnits="userSpaceOnUse" x1="7.5552" y1="7.5564" x2="63.2545" y2="63.2556">
		<stop  offset="0" style="stop-color:#00A9E1"/>
		<stop  offset="1.120000e-02" style="stop-color:#01A7DF"/>
		<stop  offset="0.1992" style="stop-color:#0985C4"/>
		<stop  offset="0.3911" style="stop-color:#106AAF"/>
		<stop  offset="0.5863" style="stop-color:#1457A0"/>
		<stop  offset="0.7866" style="stop-color:#174C97"/>
		<stop  offset="1" style="stop-color:#184894"/>
	</linearGradient>
	<path class="st0" d="M63,12C56.2,5.2,47.1,1.5,37.5,1.5C27.9,1.5,18.8,5.2,12,12C-2.1,26.1-2.1,48.9,12,63c0.1,0.1,0.1,0.1,0.2,0.2
		c0,0,0,0,0,0c0,0,0,0,0,0c7,6.9,16.1,10.3,25.3,10.3C46.7,73.5,56,70,63,63C77.1,48.9,77.1,26.1,63,12z M62,62
		c-13.3,13.3-34.8,13.5-48.3,0.7l9-9c0.3-0.3,0.3-0.7,0-1s-0.7-0.3-1,0l-9,9C-0.5,48.1-0.4,26.4,13,13C19.5,6.5,28.2,2.9,37.5,2.9
		c9.1,0,17.7,3.5,24.2,9.9l-8.5,8.5c-0.3,0.3-0.3,0.7,0,1c0.1,0.1,0.3,0.2,0.5,0.2s0.4-0.1,0.5-0.2l8.5-8.5
		C75.5,27.3,75.3,48.7,62,62z"/>
	<linearGradient id="SVGID_2_" gradientUnits="userSpaceOnUse" x1="7.5557" y1="7.5559" x2="63.255" y2="63.2551">
		<stop  offset="0" style="stop-color:#00A9E1"/>
		<stop  offset="1.120000e-02" style="stop-color:#01A7DF"/>
		<stop  offset="0.1992" style="stop-color:#0985C4"/>
		<stop  offset="0.3911" style="stop-color:#106AAF"/>
		<stop  offset="0.5863" style="stop-color:#1457A0"/>
		<stop  offset="0.7866" style="stop-color:#174C97"/>
		<stop  offset="1" style="stop-color:#184894"/>
	</linearGradient>
	<path class="st1" d="M49.7,23.4H38.2V19c0-0.4-0.3-0.7-0.7-0.7s-0.7,0.3-0.7,0.7v4.4h-2.6c-4.1,0-7.4,3.3-7.4,7.4
		c0,4.1,3.3,7.4,7.4,7.4h2.6v12H25.3c-0.4,0-0.7,0.3-0.7,0.7s0.3,0.7,0.7,0.7h11.5V57c0,0.4,0.3,0.7,0.7,0.7s0.7-0.3,0.7-0.7v-5.4
		h3.2c4.1,0,7.4-3.3,7.4-7.4c0-4.1-3.3-7.4-7.4-7.4h-3.2v-12h11.5c0.4,0,0.7-0.3,0.7-0.7S50,23.4,49.7,23.4z M41.4,38.2
		c3.3,0,6,2.7,6,6c0,3.3-2.7,6-6,6h-3.2v-12H41.4z M36.8,36.8h-2.6c-3.3,0-6-2.7-6-6c0-3.3,2.7-6,6-6h2.6V36.8z"/>
</g>
</svg>
