<?xml version="1.0" encoding="utf-8"?>
<!-- Generator: Adobe Illustrator 16.0.4, SVG Export Plug-In . SVG Version: 6.00 Build 0)  -->
<!DOCTYPE svg PUBLIC "-//W3C//DTD SVG 1.1//EN" "http://www.w3.org/Graphics/SVG/1.1/DTD/svg11.dtd">
<svg version="1.1" id="Layer_1" xmlns="http://www.w3.org/2000/svg" xmlns:xlink="http://www.w3.org/1999/xlink" x="0px" y="0px"
	 width="75px" height="75px" viewBox="0 0 75 75" enable-background="new 0 0 75 75" xml:space="preserve">
<g>
	<g>
		<linearGradient id="SVGID_1_" gradientUnits="userSpaceOnUse" x1="5.0527" y1="7.7812" x2="66.7867" y2="69.5152">
			<stop  offset="0" style="stop-color:#00A9E1"/>
			<stop  offset="0.0112" style="stop-color:#01A7DF"/>
			<stop  offset="0.1992" style="stop-color:#0985C4"/>
			<stop  offset="0.3911" style="stop-color:#106AAF"/>
			<stop  offset="0.5863" style="stop-color:#1457A0"/>
			<stop  offset="0.7866" style="stop-color:#174C97"/>
			<stop  offset="1" style="stop-color:#184894"/>
		</linearGradient>
		<path fill="url(#SVGID_1_)" d="M69.322,64.474H5.678c-2.84,0-5.15-2.311-5.15-5.15v-38.19c0-2.84,2.311-5.15,5.15-5.15h63.645
			c2.84,0,5.15,2.311,5.15,5.15v38.19C74.473,62.163,72.162,64.474,69.322,64.474z M5.678,17.383c-2.068,0-3.75,1.682-3.75,3.75
			v38.19c0,2.067,1.682,3.75,3.75,3.75h63.645c2.067,0,3.75-1.683,3.75-3.75v-38.19c0-2.068-1.683-3.75-3.75-3.75H5.678z"/>
	</g>
	<g>
		<linearGradient id="SVGID_2_" gradientUnits="userSpaceOnUse" x1="-6.1191" y1="18.9531" x2="55.6148" y2="80.687">
			<stop  offset="0" style="stop-color:#00A9E1"/>
			<stop  offset="0.0112" style="stop-color:#01A7DF"/>
			<stop  offset="0.1992" style="stop-color:#0985C4"/>
			<stop  offset="0.3911" style="stop-color:#106AAF"/>
			<stop  offset="0.5863" style="stop-color:#1457A0"/>
			<stop  offset="0.7866" style="stop-color:#174C97"/>
			<stop  offset="1" style="stop-color:#184894"/>
		</linearGradient>
		<path fill="url(#SVGID_2_)" d="M40.591,50.874H9.613c-0.387,0-0.7-0.313-0.7-0.7s0.313-0.7,0.7-0.7h30.978
			c0.387,0,0.7,0.313,0.7,0.7S40.978,50.874,40.591,50.874z"/>
	</g>
	<g>
		<linearGradient id="SVGID_3_" gradientUnits="userSpaceOnUse" x1="-15.3945" y1="28.2285" x2="46.3394" y2="89.9624">
			<stop  offset="0" style="stop-color:#00A9E1"/>
			<stop  offset="0.0112" style="stop-color:#01A7DF"/>
			<stop  offset="0.1992" style="stop-color:#0985C4"/>
			<stop  offset="0.3911" style="stop-color:#106AAF"/>
			<stop  offset="0.5863" style="stop-color:#1457A0"/>
			<stop  offset="0.7866" style="stop-color:#174C97"/>
			<stop  offset="1" style="stop-color:#184894"/>
		</linearGradient>
		<path fill="url(#SVGID_3_)" d="M16.057,57.158H9.613c-0.387,0-0.7-0.313-0.7-0.7s0.313-0.7,0.7-0.7h6.443
			c0.387,0,0.7,0.313,0.7,0.7S16.443,57.158,16.057,57.158z"/>
	</g>
	<g>
		<linearGradient id="SVGID_4_" gradientUnits="userSpaceOnUse" x1="-9.1948" y1="22.0288" x2="52.5391" y2="83.7627">
			<stop  offset="0" style="stop-color:#00A9E1"/>
			<stop  offset="0.0112" style="stop-color:#01A7DF"/>
			<stop  offset="0.1992" style="stop-color:#0985C4"/>
			<stop  offset="0.3911" style="stop-color:#106AAF"/>
			<stop  offset="0.5863" style="stop-color:#1457A0"/>
			<stop  offset="0.7866" style="stop-color:#174C97"/>
			<stop  offset="1" style="stop-color:#184894"/>
		</linearGradient>
		<path fill="url(#SVGID_4_)" d="M28.455,57.158h-6.442c-0.387,0-0.7-0.313-0.7-0.7s0.313-0.7,0.7-0.7h6.442
			c0.387,0,0.7,0.313,0.7,0.7S28.842,57.158,28.455,57.158z"/>
	</g>
	<g>
		<linearGradient id="SVGID_5_" gradientUnits="userSpaceOnUse" x1="9.5854" y1="3.2485" x2="71.3194" y2="64.9825">
			<stop  offset="0" style="stop-color:#00A9E1"/>
			<stop  offset="0.0112" style="stop-color:#01A7DF"/>
			<stop  offset="0.1992" style="stop-color:#0985C4"/>
			<stop  offset="0.3911" style="stop-color:#106AAF"/>
			<stop  offset="0.5863" style="stop-color:#1457A0"/>
			<stop  offset="0.7866" style="stop-color:#174C97"/>
			<stop  offset="1" style="stop-color:#184894"/>
		</linearGradient>
		<path fill="url(#SVGID_5_)" d="M61.849,57.158h-4.39c-2.118,0-3.841-1.724-3.841-3.842c0-2.119,1.723-3.843,3.841-3.843h4.39
			c2.117,0,3.84,1.724,3.84,3.843C65.688,55.435,63.966,57.158,61.849,57.158z M57.459,50.874c-1.346,0-2.44,1.096-2.44,2.442
			s1.095,2.441,2.44,2.441h4.39c1.346,0,2.439-1.095,2.439-2.441s-1.094-2.442-2.439-2.442H57.459z"/>
	</g>
</g>
</svg>
