<?xml version="1.0" encoding="utf-8"?>
<!-- Generator: Adobe Illustrator 16.0.4, SVG Export Plug-In . SVG Version: 6.00 Build 0)  -->
<!DOCTYPE svg PUBLIC "-//W3C//DTD SVG 1.1//EN" "http://www.w3.org/Graphics/SVG/1.1/DTD/svg11.dtd">
<svg version="1.1" id="Layer_1" xmlns="http://www.w3.org/2000/svg" xmlns:xlink="http://www.w3.org/1999/xlink" x="0px" y="0px"
	 width="75px" height="75px" viewBox="0 0 75 75" enable-background="new 0 0 75 75" xml:space="preserve">
<g>
	<g id="XMLID_2118_">
		<g id="XMLID_2121_">
			<g id="XMLID_2123_">
				<linearGradient id="SVGID_1_" gradientUnits="userSpaceOnUse" x1="7.3252" y1="-3.8252" x2="75.1125" y2="63.9622">
					<stop  offset="0" style="stop-color:#00A9E1"/>
					<stop  offset="0.0112" style="stop-color:#01A7DF"/>
					<stop  offset="0.1992" style="stop-color:#0985C4"/>
					<stop  offset="0.3911" style="stop-color:#106AAF"/>
					<stop  offset="0.5863" style="stop-color:#1457A0"/>
					<stop  offset="0.7866" style="stop-color:#174C97"/>
					<stop  offset="1" style="stop-color:#184894"/>
				</linearGradient>
				<path fill="url(#SVGID_1_)" d="M37.421,74.562c-0.333,0-0.658-0.096-0.952-0.281c-0.033-0.021-0.064-0.045-0.093-0.071
					L15.579,55.527C9.049,49.667,5.298,41.27,5.287,32.489L5.253,8.173C5.233,7.706,5.421,7.22,5.769,6.868
					C6.117,6.515,6.59,6.319,7.101,6.333c0.459,0.013,3.28,0.055,5.825,0.094c1.989,0.03,3.811,0.058,4.213,0.067
					c0.387,0.008,0.693,0.329,0.685,0.715c-0.008,0.387-0.344,0.687-0.715,0.685c-0.401-0.009-2.219-0.036-4.204-0.066
					c-2.553-0.039-5.382-0.082-5.843-0.094c-0.173,0-0.252,0.073-0.297,0.119C6.721,7.896,6.646,7.995,6.652,8.144l0.035,24.343
					c0.01,8.384,3.592,16.403,9.827,22l20.743,18.635c0.136,0.067,0.288,0.061,0.412-0.024l20.6-18.136
					c6.378-5.612,10.039-13.704,10.047-22.2l0.031-24.543c0.006-0.175-0.068-0.273-0.113-0.318s-0.153-0.131-0.294-0.114
					c-8.797,0.33-15.146,0.286-18.214-0.163c-5.46-0.793-9.301-3.87-11.596-5.708c-0.139-0.111-0.326-0.111-0.463,0.001
					c-2.289,1.861-6.122,4.978-11.493,5.638c-0.379,0.046-0.733-0.226-0.78-0.609c-0.047-0.384,0.226-0.733,0.609-0.78
					c4.971-0.611,8.608-3.568,10.781-5.335c0.649-0.528,1.562-0.531,2.219-0.008c2.186,1.75,5.841,4.678,10.925,5.417
					c2.965,0.435,9.264,0.476,17.959,0.149c0.526-0.006,0.985,0.172,1.336,0.523c0.352,0.351,0.542,0.837,0.523,1.335l-0.03,24.518
					c-0.008,8.897-3.843,17.371-10.521,23.249L38.522,74.203C38.167,74.445,37.79,74.562,37.421,74.562z"/>
			</g>
			<g id="XMLID_2122_">
				<linearGradient id="SVGID_2_" gradientUnits="userSpaceOnUse" x1="7.5972" y1="-4.0972" x2="75.3845" y2="63.6902">
					<stop  offset="0" style="stop-color:#00A9E1"/>
					<stop  offset="0.0112" style="stop-color:#01A7DF"/>
					<stop  offset="0.1992" style="stop-color:#0985C4"/>
					<stop  offset="0.3911" style="stop-color:#106AAF"/>
					<stop  offset="0.5863" style="stop-color:#1457A0"/>
					<stop  offset="0.7866" style="stop-color:#174C97"/>
					<stop  offset="1" style="stop-color:#184894"/>
				</linearGradient>
				<path fill="url(#SVGID_2_)" d="M17.124,7.894c-0.387,0-0.7-0.313-0.7-0.7s0.313-0.7,0.7-0.7c1.259,0,2.414-0.011,3.462-0.03
					c0.401-0.055,0.706,0.3,0.712,0.687c0.007,0.387-0.3,0.706-0.687,0.712C19.556,7.883,18.392,7.894,17.124,7.894z"/>
			</g>
		</g>
	</g>
	<g>
		<g>
			<linearGradient id="SVGID_3_" gradientUnits="userSpaceOnUse" x1="8.9609" y1="-5.4609" x2="76.7483" y2="62.3264">
				<stop  offset="0" style="stop-color:#00A9E1"/>
				<stop  offset="0.0112" style="stop-color:#01A7DF"/>
				<stop  offset="0.1992" style="stop-color:#0985C4"/>
				<stop  offset="0.3911" style="stop-color:#106AAF"/>
				<stop  offset="0.5863" style="stop-color:#1457A0"/>
				<stop  offset="0.7866" style="stop-color:#174C97"/>
				<stop  offset="1" style="stop-color:#184894"/>
			</linearGradient>
			<path fill="url(#SVGID_3_)" d="M38.973,35.994c-4.141,0-7.027-4.998-7.705-7.016c-0.042-0.027-0.09-0.055-0.136-0.084
				c-0.269-0.167-0.431-0.268-0.543-0.455c-0.998-1.764-1.262-3.162-0.792-4.168c0.23-0.494,0.583-0.785,0.886-0.955
				c-0.002-0.751,0.05-2.226,0.428-3.658c0.015-0.056,1.493-5.264,7.861-5.264c6.367,0,7.845,5.208,7.858,5.26
				c0.38,1.435,0.432,2.91,0.43,3.662c0.302,0.169,0.653,0.461,0.884,0.954c0.47,1.006,0.207,2.404-0.782,4.155
				c-0.109,0.196-0.275,0.299-0.552,0.471c-0.045,0.028-0.091,0.056-0.132,0.082C46.006,30.984,43.114,35.994,38.973,35.994z
				 M31.736,27.621c0.04,0.026,0.087,0.055,0.135,0.084c0.346,0.215,0.575,0.357,0.67,0.655c0.399,1.39,2.901,6.233,6.431,6.233
				c3.525,0,6.031-4.843,6.426-6.213c0.095-0.313,0.337-0.464,0.674-0.673c0.048-0.03,0.095-0.058,0.135-0.084
				c0.908-1.651,0.816-2.426,0.677-2.743c-0.144-0.327-0.442-0.405-0.476-0.413c-0.33-0.077-0.575-0.385-0.558-0.723
				c0.001-0.02,0.098-1.952-0.372-3.728c-0.047-0.167-1.236-4.221-6.506-4.221c-5.309,0-6.497,4.182-6.509,4.224
				c-0.47,1.781-0.373,3.706-0.371,3.725c0.019,0.351-0.226,0.662-0.572,0.726c-0.019,0.005-0.319,0.083-0.462,0.41
				C30.919,25.198,30.827,25.972,31.736,27.621z"/>
		</g>
		<g>
			<linearGradient id="SVGID_4_" gradientUnits="userSpaceOnUse" x1="-3.9775" y1="7.4775" x2="63.8098" y2="75.2649">
				<stop  offset="0" style="stop-color:#00A9E1"/>
				<stop  offset="0.0112" style="stop-color:#01A7DF"/>
				<stop  offset="0.1992" style="stop-color:#0985C4"/>
				<stop  offset="0.3911" style="stop-color:#106AAF"/>
				<stop  offset="0.5863" style="stop-color:#1457A0"/>
				<stop  offset="0.7866" style="stop-color:#174C97"/>
				<stop  offset="1" style="stop-color:#184894"/>
			</linearGradient>
			<path fill="url(#SVGID_4_)" d="M42.275,48.995c-12.504,0-19.324-1.4-19.608-1.46c-0.336-0.071-0.572-0.375-0.556-0.719
				c0.355-7.479,5.015-9.801,8.49-10.898c2.707-0.854,4.163-2.261,4.177-2.275c0.275-0.271,0.717-0.267,0.989,0.008
				c0.271,0.274,0.27,0.716-0.004,0.988c-0.068,0.067-1.69,1.652-4.741,2.615c-3.429,1.083-6.971,3.009-7.473,9.022
				c1.922,0.335,8.437,1.319,18.726,1.319c0.387,0,0.7,0.313,0.7,0.7S42.662,48.995,42.275,48.995z"/>
		</g>
		<g>
			<linearGradient id="SVGID_5_" gradientUnits="userSpaceOnUse" x1="6.1455" y1="-2.6455" x2="73.9329" y2="65.1418">
				<stop  offset="0" style="stop-color:#00A9E1"/>
				<stop  offset="0.0112" style="stop-color:#01A7DF"/>
				<stop  offset="0.1992" style="stop-color:#0985C4"/>
				<stop  offset="0.3911" style="stop-color:#106AAF"/>
				<stop  offset="0.5863" style="stop-color:#1457A0"/>
				<stop  offset="0.7866" style="stop-color:#174C97"/>
				<stop  offset="1" style="stop-color:#184894"/>
			</linearGradient>
			<path fill="url(#SVGID_5_)" d="M44.484,36.134c-0.117,0-0.235-0.03-0.345-0.092c-1.266-0.719-1.933-1.377-1.961-1.405
				c-0.273-0.272-0.274-0.716-0.002-0.99s0.714-0.275,0.988-0.004l0,0c0.006,0.005,0.578,0.563,1.666,1.182
				c0.336,0.191,0.454,0.618,0.263,0.954C44.965,36.007,44.729,36.134,44.484,36.134z"/>
		</g>
		<g>
			<linearGradient id="SVGID_6_" gradientUnits="userSpaceOnUse" x1="6.0078" y1="-2.5078" x2="73.7952" y2="65.2795">
				<stop  offset="0" style="stop-color:#00A9E1"/>
				<stop  offset="0.0112" style="stop-color:#01A7DF"/>
				<stop  offset="0.1992" style="stop-color:#0985C4"/>
				<stop  offset="0.3911" style="stop-color:#106AAF"/>
				<stop  offset="0.5863" style="stop-color:#1457A0"/>
				<stop  offset="0.7866" style="stop-color:#174C97"/>
				<stop  offset="1" style="stop-color:#184894"/>
			</linearGradient>
			<path fill="url(#SVGID_6_)" d="M47.899,45.668c-0.165,0-0.331-0.059-0.464-0.177l-3.414-3.025
				c-0.29-0.256-0.316-0.698-0.06-0.987c0.256-0.289,0.699-0.316,0.987-0.06l2.911,2.579l5.194-5.41
				c0.269-0.28,0.711-0.288,0.989-0.021c0.279,0.268,0.288,0.711,0.021,0.989l-5.66,5.896
				C48.268,45.596,48.084,45.668,47.899,45.668z"/>
		</g>
	</g>
</g>
</svg>
