<?xml version="1.0" encoding="utf-8"?>
<!-- Generator: Adobe Illustrator 16.0.4, SVG Export Plug-In . SVG Version: 6.00 Build 0)  -->
<!DOCTYPE svg PUBLIC "-//W3C//DTD SVG 1.1//EN" "http://www.w3.org/Graphics/SVG/1.1/DTD/svg11.dtd">
<svg version="1.1" id="Layer_1" xmlns="http://www.w3.org/2000/svg" xmlns:xlink="http://www.w3.org/1999/xlink" x="0px" y="0px"
	 width="75px" height="75px" viewBox="0 0 75 75" enable-background="new 0 0 75 75" xml:space="preserve">
<g id="XMLID_1253_">
	<g id="XMLID_1293_">
		<linearGradient id="SVGID_1_" gradientUnits="userSpaceOnUse" x1="12.8188" y1="-10.3188" x2="81.4631" y2="58.3254">
			<stop  offset="0" style="stop-color:#00A9E1"/>
			<stop  offset="0.0112" style="stop-color:#01A7DF"/>
			<stop  offset="0.1992" style="stop-color:#0985C4"/>
			<stop  offset="0.3911" style="stop-color:#106AAF"/>
			<stop  offset="0.5863" style="stop-color:#1457A0"/>
			<stop  offset="0.7866" style="stop-color:#174C97"/>
			<stop  offset="1" style="stop-color:#184894"/>
		</linearGradient>
		<path fill="url(#SVGID_1_)" d="M2.244,16.634c-0.135,0-0.271-0.039-0.392-0.12c-0.32-0.217-0.404-0.652-0.188-0.972l5.657-8.371
			c1.017-2.141,3.198-3.521,5.572-3.521h49.159c2.373,0,4.554,1.38,5.572,3.521l5.656,8.371c0.217,0.32,0.132,0.756-0.188,0.972
			c-0.32,0.215-0.755,0.132-0.972-0.188L66.435,7.91c-0.021-0.031-0.039-0.063-0.055-0.097c-0.779-1.678-2.478-2.763-4.327-2.763
			H12.894c-1.851,0-3.549,1.084-4.327,2.762C8.551,7.846,8.533,7.878,8.512,7.91l-5.688,8.416
			C2.689,16.526,2.469,16.634,2.244,16.634z"/>
	</g>
	<g id="XMLID_1292_">
		<linearGradient id="SVGID_2_" gradientUnits="userSpaceOnUse" x1="-0.0371" y1="2.5371" x2="68.6071" y2="71.1814">
			<stop  offset="0" style="stop-color:#00A9E1"/>
			<stop  offset="0.0112" style="stop-color:#01A7DF"/>
			<stop  offset="0.1992" style="stop-color:#0985C4"/>
			<stop  offset="0.3911" style="stop-color:#106AAF"/>
			<stop  offset="0.5863" style="stop-color:#1457A0"/>
			<stop  offset="0.7866" style="stop-color:#174C97"/>
			<stop  offset="1" style="stop-color:#184894"/>
		</linearGradient>
		<path fill="url(#SVGID_2_)" d="M68.75,71.351H11.094c-0.387,0-0.7-0.313-0.7-0.7s0.313-0.7,0.7-0.7H68.75
			c2.187,0,3.965-1.777,3.965-3.963v-47.49c0-2.185-1.778-3.963-3.965-3.963H6.248c-2.185,0-3.962,1.778-3.962,3.963v45.081
			c0,0.387-0.313,0.7-0.7,0.7s-0.7-0.313-0.7-0.7V18.498c0-2.957,2.406-5.363,5.363-5.363H68.75c2.958,0,5.365,2.406,5.365,5.363
			v47.49C74.115,68.944,71.708,71.351,68.75,71.351z"/>
	</g>
	<g id="XMLID_1291_">
		<linearGradient id="SVGID_3_" gradientUnits="userSpaceOnUse" x1="-30.2227" y1="32.7227" x2="38.4216" y2="101.3669">
			<stop  offset="0" style="stop-color:#00A9E1"/>
			<stop  offset="0.0112" style="stop-color:#01A7DF"/>
			<stop  offset="0.1992" style="stop-color:#0985C4"/>
			<stop  offset="0.3911" style="stop-color:#106AAF"/>
			<stop  offset="0.5863" style="stop-color:#1457A0"/>
			<stop  offset="0.7866" style="stop-color:#174C97"/>
			<stop  offset="1" style="stop-color:#184894"/>
		</linearGradient>
		<path fill="url(#SVGID_3_)" d="M11.094,71.351H6.248c-1.396,0-2.718-0.533-3.723-1.502c-0.278-0.268-0.287-0.711-0.018-0.989
			c0.268-0.278,0.71-0.286,0.99-0.019c0.743,0.716,1.72,1.109,2.751,1.109h4.847c0.387,0,0.7,0.313,0.7,0.7
			S11.481,71.351,11.094,71.351z"/>
	</g>
	<g id="XMLID_1259_">
		<linearGradient id="SVGID_4_" gradientUnits="userSpaceOnUse" x1="15.46" y1="-12.96" x2="84.1042" y2="55.6843">
			<stop  offset="0" style="stop-color:#00A9E1"/>
			<stop  offset="0.0112" style="stop-color:#01A7DF"/>
			<stop  offset="0.1992" style="stop-color:#0985C4"/>
			<stop  offset="0.3911" style="stop-color:#106AAF"/>
			<stop  offset="0.5863" style="stop-color:#1457A0"/>
			<stop  offset="0.7866" style="stop-color:#174C97"/>
			<stop  offset="1" style="stop-color:#184894"/>
		</linearGradient>
		<path fill="url(#SVGID_4_)" d="M43.722,14.23c-0.005,0-0.012,0-0.02,0H32.973c-0.21,0-0.41-0.095-0.543-0.258
			c-0.133-0.164-0.185-0.378-0.143-0.584l1.907-9.18c0.068-0.325,0.354-0.558,0.686-0.558h6.865c0.33,0,0.616,0.231,0.685,0.554
			l1.924,9.023c0.044,0.092,0.068,0.195,0.068,0.303C44.422,13.917,44.108,14.23,43.722,14.23z M33.833,12.83h9.003l-1.658-7.78
			H35.45L33.833,12.83z"/>
	</g>
	<g id="XMLID_1258_">
		<linearGradient id="SVGID_5_" gradientUnits="userSpaceOnUse" x1="8.7681" y1="-6.2681" x2="77.4123" y2="62.3762">
			<stop  offset="0" style="stop-color:#00A9E1"/>
			<stop  offset="0.0112" style="stop-color:#01A7DF"/>
			<stop  offset="0.1992" style="stop-color:#0985C4"/>
			<stop  offset="0.3911" style="stop-color:#106AAF"/>
			<stop  offset="0.5863" style="stop-color:#1457A0"/>
			<stop  offset="0.7866" style="stop-color:#174C97"/>
			<stop  offset="1" style="stop-color:#184894"/>
		</linearGradient>
		<path fill="url(#SVGID_5_)" d="M32.973,33.47c-0.135,0-0.27-0.04-0.386-0.116c-0.196-0.129-0.314-0.349-0.314-0.584V13.834
			c0-0.387,0.313-0.7,0.7-0.7h10.729c0.387,0,0.7,0.313,0.7,0.7V32.77c0,0.387-0.313,0.7-0.7,0.7h-3.477
			c-0.144,0-0.283-0.044-0.401-0.126l-2.434-1.701l-4.143,1.771C33.16,33.451,33.066,33.47,32.973,33.47z M40.446,32.069h2.556
			V14.535h-9.329v17.174l3.524-1.506c0.221-0.095,0.478-0.068,0.676,0.07L40.446,32.069z"/>
	</g>
	<g id="XMLID_1257_">
		<linearGradient id="SVGID_6_" gradientUnits="userSpaceOnUse" x1="-2.8613" y1="5.3613" x2="65.7829" y2="74.0056">
			<stop  offset="0" style="stop-color:#00A9E1"/>
			<stop  offset="0.0112" style="stop-color:#01A7DF"/>
			<stop  offset="0.1992" style="stop-color:#0985C4"/>
			<stop  offset="0.3911" style="stop-color:#106AAF"/>
			<stop  offset="0.5863" style="stop-color:#1457A0"/>
			<stop  offset="0.7866" style="stop-color:#174C97"/>
			<stop  offset="1" style="stop-color:#184894"/>
		</linearGradient>
		<path fill="url(#SVGID_6_)" d="M20.225,23.061H8.052c-0.387,0-0.7-0.313-0.7-0.7s0.313-0.7,0.7-0.7h12.173
			c0.387,0,0.7,0.313,0.7,0.7S20.612,23.061,20.225,23.061z"/>
	</g>
	<g id="XMLID_1256_">
		<linearGradient id="SVGID_7_" gradientUnits="userSpaceOnUse" x1="-7.1572" y1="9.6572" x2="61.487" y2="78.3015">
			<stop  offset="0" style="stop-color:#00A9E1"/>
			<stop  offset="0.0112" style="stop-color:#01A7DF"/>
			<stop  offset="0.1992" style="stop-color:#0985C4"/>
			<stop  offset="0.3911" style="stop-color:#106AAF"/>
			<stop  offset="0.5863" style="stop-color:#1457A0"/>
			<stop  offset="0.7866" style="stop-color:#174C97"/>
			<stop  offset="1" style="stop-color:#184894"/>
		</linearGradient>
		<path fill="url(#SVGID_7_)" d="M14.138,28.61H8.052c-0.387,0-0.7-0.313-0.7-0.7s0.313-0.7,0.7-0.7h6.086
			c0.387,0,0.7,0.313,0.7,0.7S14.525,28.61,14.138,28.61z"/>
	</g>
	<g id="XMLID_1255_">
		<linearGradient id="SVGID_8_" gradientUnits="userSpaceOnUse" x1="-4.6187" y1="7.1187" x2="64.0256" y2="75.7629">
			<stop  offset="0" style="stop-color:#00A9E1"/>
			<stop  offset="0.0112" style="stop-color:#01A7DF"/>
			<stop  offset="0.1992" style="stop-color:#0985C4"/>
			<stop  offset="0.3911" style="stop-color:#106AAF"/>
			<stop  offset="0.5863" style="stop-color:#1457A0"/>
			<stop  offset="0.7866" style="stop-color:#174C97"/>
			<stop  offset="1" style="stop-color:#184894"/>
		</linearGradient>
		<path fill="url(#SVGID_8_)" d="M37.553,60.405c-0.019,0-0.039-0.001-0.058-0.003c-2.76-0.225-5.266-1.509-7.057-3.616
			c-1.793-2.112-2.656-4.795-2.43-7.553c0.225-2.758,1.511-5.265,3.623-7.058c2.109-1.793,4.8-2.654,7.55-2.43
			c2.758,0.226,5.265,1.512,7.059,3.622c1.792,2.11,2.653,4.794,2.426,7.556c-0.031,0.385-0.369,0.678-0.755,0.64
			c-0.385-0.031-0.672-0.369-0.64-0.755c0.196-2.389-0.549-4.709-2.099-6.534c-1.552-1.825-3.72-2.938-6.104-3.134
			c-2.399-0.188-4.707,0.553-6.53,2.102c-1.827,1.552-2.939,3.72-3.134,6.105c-0.196,2.386,0.55,4.705,2.102,6.532
			c1.548,1.822,3.715,2.933,6.103,3.128c0.386,0.031,0.673,0.369,0.641,0.754C38.22,60.128,37.914,60.405,37.553,60.405z"/>
	</g>
	<g id="XMLID_1254_">
		<linearGradient id="SVGID_9_" gradientUnits="userSpaceOnUse" x1="1.0332" y1="1.4668" x2="69.6774" y2="70.111">
			<stop  offset="0" style="stop-color:#00A9E1"/>
			<stop  offset="0.0112" style="stop-color:#01A7DF"/>
			<stop  offset="0.1992" style="stop-color:#0985C4"/>
			<stop  offset="0.3911" style="stop-color:#106AAF"/>
			<stop  offset="0.5863" style="stop-color:#1457A0"/>
			<stop  offset="0.7866" style="stop-color:#174C97"/>
			<stop  offset="1" style="stop-color:#184894"/>
		</linearGradient>
		<path fill="url(#SVGID_9_)" d="M48.239,52.759c-0.161,0-0.322-0.055-0.454-0.167l-3.853-3.279
			c-0.294-0.251-0.329-0.692-0.079-0.987c0.252-0.295,0.694-0.329,0.987-0.079l3.319,2.826l2.926-3.434
			c0.252-0.295,0.694-0.329,0.987-0.079c0.294,0.251,0.329,0.693,0.079,0.987l-3.38,3.966
			C48.634,52.675,48.437,52.759,48.239,52.759z"/>
	</g>
</g>
</svg>
